<svg width="577" height="333" viewBox="0 0 577 333" fill="none" xmlns="http://www.w3.org/2000/svg">
<path d="M251.143 127.363C248.738 128.401 246.403 128.92 244.139 128.92C241.875 128.92 240.012 128.66 238.55 128.141C237.088 127.623 235.98 127.033 235.225 126.373C234.518 125.713 233.976 124.746 233.598 123.472C233.221 122.199 232.985 121.138 232.891 120.289C232.844 119.393 232.82 118.167 232.82 116.61L232.82 78.4793L242.795 78.4793L242.795 117.176C242.795 118.544 242.984 119.511 243.361 120.077C243.785 120.643 244.611 120.926 245.837 120.926C247.063 120.926 248.337 120.761 249.657 120.43L251.143 127.363ZM286.627 126.797C284.222 128.118 281.581 128.778 278.704 128.778C275.874 128.778 273.776 127.693 272.408 125.524C269.673 127.788 266.465 128.92 262.787 128.92C259.108 128.92 256.326 128 254.439 126.161C252.553 124.274 251.609 121.727 251.609 118.52C251.609 116.398 252.057 114.582 252.953 113.073C253.85 111.564 255.005 110.456 256.42 109.748C259.014 108.522 261.702 107.909 264.485 107.909C267.314 107.909 269.578 107.979 271.276 108.121L271.276 104.655C271.276 102.202 270.781 100.622 269.79 99.9147C268.8 99.2073 267.102 98.8535 264.697 98.8535C262.339 98.8535 259.674 99.3487 256.703 100.339L254.651 94.1137C256.396 93.0761 258.519 92.2979 261.018 91.7792C263.565 91.2132 265.734 90.9302 267.527 90.9302C272.337 90.9302 275.757 91.9678 277.785 94.043C279.86 96.0709 280.897 99.561 280.897 104.513L280.897 119.369C280.897 120.69 281.487 121.35 282.666 121.35C283.279 121.35 284.151 121.209 285.283 120.926L286.627 126.797ZM265.475 122.34C267.456 122.34 269.39 121.727 271.276 120.501L271.276 113.073C269.956 112.979 268.8 112.932 267.81 112.932C263.141 112.932 260.806 114.441 260.806 117.459C260.806 120.713 262.362 122.34 265.475 122.34ZM298.213 95.7408C299.439 94.5146 301.113 93.4298 303.236 92.4866C305.405 91.5433 307.693 91.0717 310.098 91.0717C312.503 91.0717 314.366 91.4726 315.687 92.2744C317.007 93.0761 318.068 94.3023 318.87 95.953C320.143 94.6325 321.865 93.5006 324.034 92.5573C326.251 91.5669 328.468 91.0717 330.684 91.0717C334.74 91.0717 337.476 92.1329 338.891 94.2552C340.353 96.3303 341.084 99.3016 341.084 103.169L341.084 128L331.18 128L331.18 104.938C331.18 101.919 330.543 100.127 329.269 99.561C328.656 99.278 327.831 99.1365 326.793 99.1365C324.152 99.1365 321.912 100.009 320.073 101.754C320.12 102.084 320.143 102.579 320.143 103.24L320.143 128L310.239 128L310.239 104.938C310.239 101.919 309.603 100.127 308.329 99.561C307.716 99.278 306.891 99.1365 305.853 99.1365C303.212 99.1365 300.972 100.009 299.133 101.754L299.133 128L289.228 128L289.228 91.7084L297.364 91.7084L298.213 95.7408ZM357.492 78.4086L357.492 94.043C358.482 93.2412 359.803 92.5573 361.453 91.9914C363.151 91.3783 364.849 91.0717 366.547 91.0717C370.414 91.0717 373.598 92.5573 376.097 95.5286C378.597 98.4527 379.847 102.65 379.847 108.121C379.847 114.865 378.479 120.03 375.744 123.614C373.008 127.151 368.622 128.92 362.585 128.92C359.991 128.92 357.209 128.66 354.238 128.141C351.266 127.67 349.05 127.104 347.588 126.444L347.588 78.4086L357.492 78.4086ZM361.171 120.926C364.425 120.926 366.689 119.935 367.962 117.954C369.235 115.974 369.872 113.097 369.872 109.324C369.872 105.551 369.353 102.91 368.316 101.4C367.325 99.8911 365.792 99.1365 363.717 99.1365C361.642 99.1365 359.567 99.7732 357.492 101.047L357.492 120.572C358.765 120.808 359.991 120.926 361.171 120.926ZM398.034 98.7121C394.827 98.7121 393.224 99.7732 393.224 101.896C393.224 103.027 393.766 103.994 394.851 104.796C395.935 105.598 397.232 106.305 398.742 106.918C400.298 107.484 401.831 108.145 403.34 108.899C404.896 109.607 406.217 110.644 407.302 112.012C408.386 113.38 408.929 115.054 408.929 117.035C408.929 120.572 407.726 123.449 405.321 125.665C402.915 127.835 399.378 128.92 394.709 128.92C392.587 128.92 390.347 128.684 387.989 128.212C385.678 127.741 383.98 127.198 382.895 126.585L385.3 119.511C388.979 120.737 392.28 121.35 395.204 121.35C398.176 121.35 399.661 120.195 399.661 117.884C399.661 116.893 399.119 115.997 398.034 115.195C396.949 114.394 395.629 113.663 394.072 113.002C392.563 112.295 391.03 111.54 389.474 110.739C387.965 109.937 386.668 108.805 385.583 107.343C384.498 105.881 383.956 104.183 383.956 102.249C383.956 98.6177 385.159 95.8351 387.564 93.9015C389.969 91.9678 393.412 91.001 397.893 91.001C402.373 91.001 405.887 91.732 408.433 93.194L406.099 100.198C402.845 99.2073 400.156 98.7121 398.034 98.7121Z" fill="url(#paint0_linear_204_144)"/>
<g filter="url(#filter0_d_204_144)">
<path d="M52.7817 120.726C53.5631 120.726 54.2092 120.981 54.7201 121.492C55.2611 121.973 55.5315 122.604 55.5315 123.385C55.5315 124.137 55.2611 124.768 54.7201 125.279C54.2092 125.76 53.5631 126 52.7817 126L38.1308 126C37.3495 126 36.6883 125.745 36.1473 125.234C35.6364 124.693 35.381 124.032 35.381 123.25L35.381 97.1942C35.381 96.4128 35.6515 95.7666 36.1924 95.2557C36.7334 94.7148 37.4246 94.4443 38.2661 94.4443C38.9873 94.4443 39.6185 94.7148 40.1594 95.2557C40.7304 95.7666 41.0159 96.4128 41.0159 97.1942L41.0159 121.492L40.0242 120.726L52.7817 120.726ZM62.5425 94.4443L77.6441 94.4443C78.4255 94.4443 79.0716 94.6998 79.5825 95.2107C80.1235 95.6915 80.394 96.3226 80.394 97.104C80.394 97.8553 80.1235 98.4714 79.5825 98.9523C79.0716 99.4031 78.4255 99.6285 77.6441 99.6285L65.0218 99.6285L65.4276 98.8621L65.4276 107.653L65.0669 107.292L75.6155 107.292C76.3969 107.292 77.0431 107.547 77.554 108.058C78.0949 108.539 78.3654 109.17 78.3654 109.952C78.3654 110.703 78.0949 111.319 77.554 111.8C77.0431 112.251 76.3969 112.476 75.6155 112.476L65.2022 112.476L65.4276 112.115L65.4276 121.222L65.0669 120.816L77.6441 120.816C78.4255 120.816 79.0716 121.086 79.5825 121.627C80.1235 122.138 80.394 122.739 80.394 123.43C80.394 124.182 80.1235 124.798 79.5825 125.279C79.0716 125.76 78.4255 126 77.6441 126L62.5425 126C61.7611 126 61.0999 125.745 60.559 125.234C60.0481 124.693 59.7926 124.032 59.7926 123.25L59.7926 97.1942C59.7926 96.4128 60.0481 95.7666 60.559 95.2557C61.0999 94.7148 61.7611 94.4443 62.5425 94.4443ZM96.274 101.522L86.5368 124.422C86.3264 124.993 85.9958 125.444 85.545 125.775C85.1243 126.075 84.6585 126.225 84.1476 126.225C83.3361 126.225 82.7351 126 82.3444 125.549C81.9537 125.098 81.7583 124.542 81.7583 123.881C81.7583 123.611 81.8034 123.325 81.8936 123.025L93.1184 96.0672C93.3588 95.4661 93.7195 95.0003 94.2003 94.6697C94.7112 94.3391 95.2522 94.2039 95.8232 94.264C96.3641 94.264 96.86 94.4293 97.3108 94.7599C97.7916 95.0604 98.1372 95.4962 98.3476 96.0672L109.437 122.484C109.587 122.874 109.663 123.235 109.663 123.566C109.663 124.377 109.392 125.023 108.851 125.504C108.34 125.985 107.769 126.225 107.138 126.225C106.597 126.225 106.101 126.06 105.651 125.73C105.23 125.399 104.899 124.948 104.659 124.377L94.9667 101.792L96.274 101.522ZM87.9342 118.923L90.4136 113.738L102.585 113.738L103.442 118.923L87.9342 118.923ZM115.824 126C114.982 126 114.231 125.745 113.57 125.234C112.909 124.693 112.578 124.032 112.578 123.25L112.578 97.1942C112.578 96.4128 112.833 95.7666 113.344 95.2557C113.885 94.7148 114.546 94.4443 115.328 94.4443L128.311 94.4443C129.873 94.4443 131.331 94.8651 132.683 95.7065C134.066 96.518 135.178 97.66 136.019 99.1326C136.861 100.575 137.282 102.243 137.282 104.136C137.282 105.278 137.041 106.39 136.56 107.472C136.109 108.554 135.478 109.531 134.667 110.402C133.886 111.274 132.999 111.95 132.007 112.431L132.052 111.394C132.894 111.845 133.585 112.386 134.126 113.017C134.697 113.618 135.133 114.279 135.433 115.001C135.764 115.692 135.959 116.443 136.019 117.255C136.14 118.006 136.215 118.667 136.245 119.238C136.305 119.809 136.395 120.29 136.515 120.681C136.665 121.071 136.936 121.372 137.327 121.582C137.988 121.973 138.394 122.544 138.544 123.295C138.724 124.017 138.559 124.663 138.048 125.234C137.717 125.624 137.297 125.88 136.786 126C136.275 126.09 135.764 126.09 135.253 126C134.742 125.88 134.321 125.73 133.991 125.549C133.48 125.249 132.969 124.813 132.458 124.242C131.947 123.641 131.526 122.844 131.196 121.853C130.895 120.861 130.745 119.584 130.745 118.021C130.745 117.51 130.655 117.044 130.475 116.623C130.294 116.173 130.039 115.797 129.708 115.496C129.378 115.166 128.957 114.925 128.446 114.775C127.935 114.595 127.334 114.505 126.643 114.505L117.537 114.505L118.213 113.468L118.213 123.25C118.213 124.032 118.003 124.693 117.582 125.234C117.161 125.745 116.575 126 115.824 126ZM117.582 109.862L128.085 109.862C128.626 109.862 129.152 109.621 129.663 109.14C130.174 108.629 130.595 107.953 130.925 107.112C131.256 106.24 131.421 105.293 131.421 104.272C131.421 102.949 131.061 101.852 130.339 100.981C129.648 100.079 128.897 99.6285 128.085 99.6285L117.672 99.6285L118.213 98.1859L118.213 110.943L117.582 109.862ZM166.562 94.4443C167.283 94.4443 167.869 94.6847 168.32 95.1656C168.771 95.6464 168.996 96.2475 168.996 96.9688L168.996 123.25C168.996 124.032 168.726 124.693 168.185 125.234C167.674 125.745 167.028 126 166.246 126C165.856 126 165.45 125.94 165.029 125.82C164.638 125.669 164.338 125.474 164.128 125.234L146.411 102.739L147.583 102.018L147.583 123.476C147.583 124.197 147.343 124.798 146.862 125.279C146.411 125.76 145.81 126 145.059 126C144.338 126 143.752 125.76 143.301 125.279C142.85 124.798 142.625 124.197 142.625 123.476L142.625 97.1942C142.625 96.4128 142.88 95.7666 143.391 95.2557C143.932 94.7148 144.593 94.4443 145.374 94.4443C145.795 94.4443 146.231 94.5345 146.682 94.7148C147.133 94.8651 147.463 95.1055 147.673 95.4361L164.849 117.345L164.082 117.886L164.082 96.9688C164.082 96.2475 164.308 95.6464 164.759 95.1656C165.209 94.6847 165.81 94.4443 166.562 94.4443Z" fill="#5376A4"/>
</g>
<g clip-path="url(#clip0_204_144)" filter="url(#filter1_f_204_144)">
<path d="M211.683 97.1512C206.9 98.9425 206.973 104.488 206.973 104.488C206.973 104.488 203.409 100.25 198.594 102.053C194.974 103.409 191.923 107.822 195.888 113.772C199.854 119.722 214.156 123.629 214.156 123.629C214.156 123.629 222.333 111.304 221.417 104.212C220.498 97.1206 215.595 95.6861 211.683 97.1512Z" fill="url(#paint1_linear_204_144)" fill-opacity="0.8"/>
<path d="M198.038 102.816C201.793 101.41 205.169 104.748 206.384 106.158C206.556 106.359 206.884 106.244 206.897 105.98L206.966 104.488C205.264 102.303 202.231 100.691 198.594 102.053C197.087 102.617 195.682 103.711 194.838 105.225C195.663 104.097 196.816 103.274 198.038 102.816ZM211.683 97.151C210.528 97.5835 209.676 98.2859 209.044 99.0976C209.537 98.6591 210.125 98.2894 210.833 98.0245C214.371 96.6993 218.544 98.1959 219.437 104.933C220.204 110.717 215.454 119.862 214.187 123.146C214.106 123.356 214.153 123.627 214.153 123.627C214.153 123.627 222.33 111.303 221.414 104.21C220.498 97.1204 215.302 95.7955 211.683 97.151Z" fill="url(#paint2_linear_204_144)" fill-opacity="0.8"/>
<path d="M196.18 106.902C196.616 105.574 197.763 104.181 199.367 104.691C200.234 104.966 200.346 106.154 199.916 106.833C199.291 107.823 198.681 108.507 198.537 109.746C198.452 110.49 198.516 111.245 198.679 111.978C198.742 112.268 198.408 112.47 198.182 112.279C196.649 110.991 195.545 108.84 196.18 106.902ZM210.109 104.135C209.725 104.279 209.315 104.009 209.321 103.599C209.334 102.842 209.431 102.079 209.623 101.36C209.907 100.298 210.861 99.383 211.772 99.6218C212.704 99.8651 212.997 100.94 212.668 101.636C211.96 103.128 210.662 103.928 210.109 104.135Z" fill="url(#paint3_linear_204_144)" fill-opacity="0.8"/>
</g>
<g clip-path="url(#clip1_204_144)">
<path d="M205.522 87.5825C198.878 90.0709 198.979 97.7752 198.979 97.7752C198.979 97.7752 194.028 91.887 187.339 94.3924C182.31 96.2754 178.071 102.407 183.58 110.672C189.09 118.938 208.958 124.364 208.958 124.364C208.958 124.364 220.316 107.243 219.044 97.3912C217.768 87.5401 210.956 85.5473 205.522 87.5825Z" fill="url(#paint4_linear_204_144)"/>
<path d="M186.567 95.4524C191.783 93.4989 196.473 98.1363 198.16 100.094C198.4 100.374 198.855 100.214 198.874 99.8478L198.969 97.7754C196.605 94.7396 192.391 92.5001 187.339 94.3923C185.246 95.1759 183.294 96.6953 182.121 98.7979C183.267 97.2312 184.869 96.0884 186.567 95.4524ZM205.522 87.5824C203.918 88.1832 202.734 89.159 201.856 90.2866C202.541 89.6774 203.358 89.1639 204.341 88.7959C209.257 86.9549 215.053 89.034 216.293 98.3935C217.359 106.428 210.76 119.131 209.001 123.694C208.889 123.985 208.954 124.362 208.954 124.362C208.954 124.362 220.312 107.241 219.039 97.3891C217.768 87.5399 210.55 85.6994 205.522 87.5824Z" fill="url(#paint5_linear_204_144)"/>
<path d="M183.986 101.129C184.592 99.2835 186.184 97.349 188.413 98.0564C189.618 98.4386 189.773 100.089 189.175 101.032C188.307 102.408 187.46 103.358 187.26 105.079C187.142 106.112 187.231 107.161 187.457 108.18C187.545 108.582 187.08 108.864 186.766 108.598C184.637 106.808 183.103 103.821 183.986 101.129ZM203.336 97.2847C202.802 97.4846 202.233 97.1099 202.241 96.5399C202.259 95.4889 202.394 94.4285 202.66 93.4299C203.055 91.9542 204.38 90.6832 205.646 91.015C206.941 91.3528 207.348 92.8463 206.891 93.813C205.907 95.8861 204.103 96.9974 203.336 97.2847Z" fill="url(#paint6_linear_204_144)"/>
</g>
<defs>
<filter id="filter0_d_204_144" x="32.6574" y="93.3286" width="139.062" height="37.4986" filterUnits="userSpaceOnUse" color-interpolation-filters="sRGB">
<feFlood flood-opacity="0" result="BackgroundImageFix"/>
<feColorMatrix in="SourceAlpha" type="matrix" values="0 0 0 0 0 0 0 0 0 0 0 0 0 0 0 0 0 0 127 0" result="hardAlpha"/>
<feOffset dy="1.87831"/>
<feGaussianBlur stdDeviation="1.36178"/>
<feComposite in2="hardAlpha" operator="out"/>
<feColorMatrix type="matrix" values="0 0 0 0 0.354733 0 0 0 0 0.425436 0 0 0 0 0.51185 0 0 0 0.45 0"/>
<feBlend mode="normal" in2="BackgroundImageFix" result="effect1_dropShadow_204_144"/>
<feBlend mode="normal" in="SourceGraphic" in2="effect1_dropShadow_204_144" result="shape"/>
</filter>
<filter id="filter1_f_204_144" x="178.381" y="80.3628" width="62.5066" height="62.5069" filterUnits="userSpaceOnUse" color-interpolation-filters="sRGB">
<feFlood flood-opacity="0" result="BackgroundImageFix"/>
<feBlend mode="normal" in="SourceGraphic" in2="BackgroundImageFix" result="shape"/>
<feGaussianBlur stdDeviation="6.02492" result="effect1_foregroundBlur_204_144"/>
</filter>
<linearGradient id="paint0_linear_204_144" x1="229" y1="105.5" x2="545.579" y2="105.5" gradientUnits="userSpaceOnUse">
<stop stop-color="#5376A4"/>
<stop offset="1" stop-color="#F2EADA"/>
</linearGradient>
<linearGradient id="paint1_linear_204_144" x1="205.145" y1="99.5998" x2="214.145" y2="123.633" gradientUnits="userSpaceOnUse">
<stop stop-color="#81A4B9"/>
<stop offset="1" stop-color="#EC9C5B"/>
</linearGradient>
<linearGradient id="paint2_linear_204_144" x1="206.241" y1="99.189" x2="215.241" y2="123.22" gradientUnits="userSpaceOnUse">
<stop offset="0.0480769" stop-color="#81A4B9"/>
<stop offset="1" stop-color="#B27E34"/>
</linearGradient>
<linearGradient id="paint3_linear_204_144" x1="203.528" y1="102.473" x2="206.146" y2="109.466" gradientUnits="userSpaceOnUse">
<stop stop-color="#F7D2B4"/>
<stop offset="0.576923" stop-color="#E0E8FF"/>
<stop offset="1" stop-color="#142D4F"/>
</linearGradient>
<linearGradient id="paint4_linear_204_144" x1="196.439" y1="90.9842" x2="208.942" y2="124.37" gradientUnits="userSpaceOnUse">
<stop stop-color="#53A7D8"/>
<stop offset="0.485577" stop-color="#9C978B"/>
<stop offset="1" stop-color="#EC9C5B"/>
</linearGradient>
<linearGradient id="paint5_linear_204_144" x1="197.962" y1="90.4135" x2="210.465" y2="123.796" gradientUnits="userSpaceOnUse">
<stop offset="0.0480769" stop-color="#3E789A"/>
<stop offset="1" stop-color="#B27E34"/>
</linearGradient>
<linearGradient id="paint6_linear_204_144" x1="194.193" y1="94.9764" x2="197.831" y2="104.69" gradientUnits="userSpaceOnUse">
<stop stop-color="#DA965E"/>
<stop offset="0.576923" stop-color="#E0E8FF"/>
<stop offset="1" stop-color="#142D4F"/>
</linearGradient>
<clipPath id="clip0_204_144">
<rect width="29.8374" height="29.8379" fill="white" transform="translate(190.431 102.877) rotate(-20.5314)"/>
</clipPath>
<clipPath id="clip1_204_144">
<rect width="41.4494" height="41.4501" fill="white" transform="translate(176 95.5371) rotate(-20.5314)"/>
</clipPath>
</defs>
</svg>
